<svg xmlns="http://www.w3.org/2000/svg" width="300" height="300" viewBox="0 0 300 300">

    <ellipse cx="150" cy="150" rx="120" ry="100" fill="orange" stroke="black" stroke-width="5" />
    
    <ellipse cx="90" cy="70" rx="40" ry="40" fill="orange" stroke="black" stroke-width="5" />
    <ellipse cx="210" cy="70" rx="40" ry="40" fill="orange" stroke="black" stroke-width="5" />
    <circle cx="90" cy="70" r="20" fill="white" />
    <circle cx="210" cy="70" r="20" fill="white" />

    <ellipse cx="110" cy="140" rx="20" ry="15" fill="white" />
    <ellipse cx="190" cy="140" rx="20" ry="15" fill="white" />
    <circle cx="110" cy="140" r="10" fill="black" />
    <circle cx="190" cy="140" r="10" fill="black" />
    
    <path d="M90 120 Q110 110 130 120" fill="none" stroke="black" stroke-width="5" />
    <path d="M170 120 Q190 110 210 120" fill="none" stroke="black" stroke-width="5" />
    
    <path d="M140 170 Q150 180 160 170 Q150 190 140 170 Z" fill="black" />
    
    <path d="M130 200 Q150 220 170 200" fill="none" stroke="black" stroke-width="3" />
    <path d="M130 200 Q150 210 170 200" fill="none" stroke="black" stroke-width="2" />
    
    <line x1="120" y1="180" x2="60" y2="170" stroke="black" stroke-width="2" />
    <line x1="120" y1="190" x2="50" y2="190" stroke="black" stroke-width="2" />
    <line x1="120" y1="200" x2="60" y2="210" stroke="black" stroke-width="2" />
    <line x1="180" y1="180" x2="240" y2="170" stroke="black" stroke-width="2" />
    <line x1="180" y1="190" x2="250" y2="190" stroke="black" stroke-width="2" />
    <line x1="180" y1="200" x2="240" y2="210" stroke="black" stroke-width="2" />
</svg>


